<svg xmlns="http://www.w3.org/2000/svg" width="1200" height="630" viewBox="0 0 1200 630">
  <!-- Background -->
  <rect width="1200" height="630" fill="#fafafa"/>
  
  <!-- Gradient overlay -->
  <defs>
    <linearGradient id="grad1" x1="0%" y1="0%" x2="100%" y2="100%">
      <stop offset="0%" style="stop-color:#5FA382;stop-opacity:0.1" />
      <stop offset="100%" style="stop-color:#5FA382;stop-opacity:0.05" />
    </linearGradient>
  </defs>
  <rect width="1200" height="630" fill="url(#grad1)"/>
  
  <!-- Decorative circles -->
  <circle cx="100" cy="100" r="80" fill="#5FA382" opacity="0.1"/>
  <circle cx="1100" cy="530" r="120" fill="#5FA382" opacity="0.1"/>
  
  <!-- Heart icon container -->
  <g transform="translate(600, 250)">
    <circle cx="0" cy="0" r="60" fill="#5FA382" opacity="0.1"/>
    <path d="M20.84 4.61a5.5 5.5 0 0 0-7.78 0L12 5.67l-1.06-1.06a5.5 5.5 0 0 0-7.78 7.78l1.06 1.06L12 21.23l7.78-7.78 1.06-1.06a5.5 5.5 0 0 0 0-7.78z" 
          fill="#5FA382" 
          transform="translate(-12, -12) scale(2.5)"/>
  </g>
  
  <!-- Title -->
  <text x="600" y="360" 
        font-family="Inter, system-ui, -apple-system, sans-serif" 
        font-size="64" 
        font-weight="bold" 
        fill="#2c2c2c" 
        text-anchor="middle">
    Health Questionnaire
  </text>
  
  <!-- Subtitle -->
  <text x="600" y="420" 
        font-family="Inter, system-ui, -apple-system, sans-serif" 
        font-size="32" 
        fill="#666666" 
        text-anchor="middle">
    Анкета по здоровью
  </text>
  
  <!-- Description -->
  <text x="600" y="480" 
        font-family="Inter, system-ui, -apple-system, sans-serif" 
        font-size="24" 
        fill="#888888" 
        text-anchor="middle">
    Free health questionnaire for personalized consultation
  </text>
</svg>

